<?xml version="1.0" standalone="no"?>
<!DOCTYPE svg PUBLIC "-//W3C//DTD SVG 20010904//EN"
 "http://www.w3.org/TR/2001/REC-SVG-20010904/DTD/svg10.dtd">
<svg version="1.0" xmlns="http://www.w3.org/2000/svg"
 width="200.000000pt" height="200.000000pt" viewBox="0 0 200.000000 200.000000"
 preserveAspectRatio="xMidYMid meet">
<metadata>
Created by potrace 1.11, written by Peter Selinger 2001-2013
</metadata>
<g transform="translate(0.000000,200.000000) scale(0.100000,-0.100000)"
fill="#000000" stroke="none">
<path d="M977 1519 c-103 -113 -186 -307 -212 -494 -7 -53 -8 -183 -1 -225 3
-14 7 -43 11 -65 22 -150 105 -332 200 -440 21 -24 28 -27 35 -15 17 27 11 49
-30 102 -101 131 -160 307 -166 493 -6 198 39 361 147 524 47 72 58 96 53 116
-7 29 -13 30 -37 4z"/>
<path d="M1739 1538 c-12 -39 -6 -62 31 -110 39 -52 83 -134 114 -213 52 -136
67 -332 36 -483 -28 -141 -102 -302 -172 -379 -16 -17 -19 -30 -14 -58 8 -40
7 -40 67 35 51 63 94 144 130 241 46 127 58 205 54 364 -3 163 -28 266 -95
402 -49 98 -143 224 -151 201z"/>
<path d="M30 1001 l0 -489 82 2 83 1 0 165 0 165 120 5 c100 5 129 10 175 31
116 54 172 147 174 289 1 73 -3 93 -26 140 -34 72 -64 104 -124 134 -77 38
-125 45 -311 46 l-173 0 0 -489z m387 315 c70 -36 100 -128 69 -209 -29 -76
-87 -104 -216 -102 l-75 0 -1 160 c0 88 1 163 2 166 7 13 191 1 221 -15z"/>
<path d="M1055 1080 c-1 -3 55 -121 125 -264 l128 -258 -52 -112 c-29 -61 -61
-129 -71 -151 -10 -22 -20 -43 -22 -47 -2 -5 25 -8 61 -8 l66 0 69 143 c38 78
128 263 201 412 72 148 132 274 133 279 1 5 -27 10 -65 11 l-67 1 -65 -131
c-35 -71 -76 -159 -91 -195 -15 -36 -28 -66 -30 -68 -1 -1 -10 19 -20 45 -10
27 -51 116 -91 198 l-72 150 -67 0 c-37 0 -68 -2 -70 -5z"/>
</g>
</svg>
